<?xml version="1.0" encoding="UTF-8"?>
<svg id="Layer_1" xmlns="http://www.w3.org/2000/svg" version="1.1" xmlns:xlink="http://www.w3.org/1999/xlink" viewBox="0 0 365.5 159.6">
  <!-- Generator: Adobe Illustrator 29.3.0, SVG Export Plug-In . SVG Version: 2.1.0 Build 146)  -->
  <defs>
    <style>
      .st0, .st1 {
        fill: #fff;
      }

      .st2 {
        fill: url(#Gradiente_sem_nome);
      }

      .st3 {
        fill: #333;
      }

      .st4 {
        fill: #ee7f26;
      }

      .st1, .st5 {
        isolation: isolate;
        opacity: 1;
      }

      .st6 {
        fill: #f15b29;
      }

      .st5 {
        fill: #b65c27;
      }
    </style>
    <linearGradient id="Gradiente_sem_nome" data-name="Gradiente sem nome" x1="47" y1="98.9" x2="113.4" y2="213.9" gradientTransform="translate(0 227) scale(1 -1)" gradientUnits="userSpaceOnUse">
      <stop offset="0" stop-color="#f04c25"/>
      <stop offset=".3" stop-color="#ef5525"/>
      <stop offset=".8" stop-color="#ef6e25"/>
      <stop offset="1" stop-color="#ef7826"/>
    </linearGradient>
  </defs>
  <g>
    <path class="st2" d="M80.9,16.4c-1.9,1.7-3.5,4-5,5.8-3.5,4.3-4.6,5.4-8.1,9.7-4.3,5.2-8.5,10.4-12.8,15.6-3.9,4.8-7.8,9.5-11.7,14.3-3.5,4.3-7.3,8.4-10.8,12.8-2.3,2.9-4,6.2-5.2,9.7-1.2,3.5-1.9,7.2-2.1,11-.9,16.4,11.2,27.4,18.9,31.4,7.7,4,28.5,8.6,44.1-10.7,1.8-2.2,3.6-4.4,5.4-6.6,4-4.9,8.1-9.7,12.1-14.6,4.1-5,8.2-10,12.4-15,1.3-1.6,2.6-3.2,3.9-4.8,2.5-3.1,7.9-7.8,5-12.2-2.8-4.2-7-4.9-10-3-2.8,1.7-5.1,4.9-7.1,7.4-2,2.3-3.9,4.6-5.6,7.2-1.8,2.7-4.4,3.9-7.6,2.7-4.4-1.6-4.8-6.3-2.8-10,1.2-2.2,8.7-11.4,8.7-11.4l22.7-25.8s3.4-3.8.3-8.5c-3.1-4.7-8.8-4.2-11.1-2-2.3,2.2-13.3,14.9-13.3,14.9l-13.2,15.3s-1.8,2.2-5.9,1.9c-3.6-.2-7-5-5.3-8.4,1.3-2.5,3.5-4.7,5.3-6.7,1.6-1.9,3.3-3.7,4.9-5.5,2.3-2.7,2.4-2.1,4.4-5,1.3-1.9,2.8-4.9,1.5-7.1-1.1-1.9-2.6-3.7-4.6-4.4-3.1-1.1-5.6.1-7.7,2h0Z"/>
    <circle class="st0" cx="61.6" cy="95.1" r="16.9"/>
    <circle class="st5" cx="61.2" cy="95.2" r="23.9"/>
    <circle class="st4" cx="62.7" cy="91.5" r="20.1"/>
    <polygon class="st5" points="28.4 60.1 27 63.5 23.6 64.9 27 66.3 28.4 69.7 29.9 66.3 33.2 64.9 29.9 63.5 28.4 60.1"/>
    <polygon class="st5" points="35.1 113.7 33.6 117.2 30.2 118.6 33.6 120 35.1 123.4 36.5 120 39.9 118.6 36.5 117.2 35.1 113.7"/>
    <polygon class="st1" points="96.6 90.2 95.1 93.7 91.8 95 95.1 96.5 96.6 99.9 98 96.5 101.4 95 98 93.7 96.6 90.2"/>
    <path class="st1" d="M36.2,120.7l.3-.7,3.4-1.4-3.3-1.4-1.5-3.4-1.4,3.5-.5.2c.8,1,1.9,2.1,3.1,3.3Z"/>
  </g>
  <g>
    <g>
      <path class="st3" d="M153.2,91.3v-26.4h7.4c1.7,0,3.1.3,4.2,1.1s1.9,1.7,2.4,2.9c.5,1.2.8,2.6.8,4.2s-.3,2.9-.8,4.1-1.3,2.1-2.4,2.8c-1.1.7-2.5,1-4.2,1h-6v-2.9h5.9c1.2,0,2.1-.2,2.8-.6s1.2-1,1.6-1.8c.3-.8.5-1.7.5-2.7s-.2-2-.5-2.8c-.3-.8-.9-1.4-1.6-1.8s-1.7-.6-2.9-.6h-4.7v23.6h-2.7,0ZM163.6,79.5l5.4,11.9h-3.1l-5.3-11.9h3Z"/>
      <path class="st3" d="M192.9,78.1c0,2.8-.4,5.2-1.3,7.2s-2,3.6-3.5,4.7c-1.5,1.1-3.1,1.7-5,1.7s-3.5-.5-5-1.7c-1.5-1.1-2.6-2.7-3.5-4.7-.8-2-1.3-4.4-1.3-7.2s.4-5.2,1.3-7.2c.8-2,2-3.6,3.5-4.7,1.5-1.1,3.1-1.7,5-1.7s3.5.5,5,1.7c1.5,1.1,2.6,2.7,3.5,4.7s1.3,4.4,1.3,7.2ZM190.4,78.1c0-2.3-.3-4.2-1-5.8s-1.5-2.8-2.6-3.6c-1.1-.8-2.3-1.2-3.6-1.2s-2.5.4-3.6,1.2c-1.1.8-1.9,2-2.6,3.6s-1,3.5-1,5.8.3,4.2,1,5.8,1.5,2.8,2.6,3.6c1.1.8,2.3,1.2,3.6,1.2s2.5-.4,3.6-1.2c1.1-.8,1.9-2,2.6-3.6.6-1.6,1-3.5,1-5.8Z"/>
      <path class="st3" d="M198,67.8v-2.8h16.5v2.8h-6.9v23.6h-2.7v-23.6s-6.9,0-6.9,0Z"/>
      <path class="st3" d="M221.3,91.3h-2.8l8.1-26.4h2.8l8.1,26.4h-2.8l-6.6-22.2h-.2l-6.6,22.2h0ZM222.4,81h11.3v2.8h-11.3v-2.8Z"/>
      <path class="st3" d="M259.8,91.3h-6.8v-26.4h7.1c2.1,0,4,.5,5.5,1.6s2.7,2.6,3.5,4.5,1.2,4.3,1.2,7-.4,5.1-1.2,7.1-2,3.5-3.6,4.6c-1.6,1.1-3.5,1.6-5.7,1.6h0ZM255.6,88.5h4c1.8,0,3.3-.4,4.5-1.3s2.1-2,2.7-3.6.9-3.4.9-5.6-.3-4-.9-5.5-1.4-2.7-2.6-3.6c-1.2-.8-2.6-1.2-4.3-1.2h-4.3v20.7h0Z"/>
      <path class="st3" d="M276.5,91.3v-26.4h13.3v2.8h-10.6v8.9h9.9v2.8h-9.9v9h10.8v2.8h-13.5Z"/>
    </g>
    <g>
      <path class="st6" d="M153.2,100.5h5.4l7.2,21.1h.3l7.2-21.1h5.4v29.2h-4.2v-20h-.2l-6.7,19.9h-3.2l-6.7-20h-.2v20.1h-4.2v-29.2h0Z"/>
      <path class="st6" d="M185.5,129.7v-29.2h15.8v4.4h-11.4v7.9h10.6v4.4h-10.6v8h11.5v4.4h-15.9,0Z"/>
      <path class="st6" d="M207.7,129.7v-29.2h9.1c1.9,0,3.4.4,4.7,1.2,1.3.8,2.2,1.9,2.9,3.3.6,1.4,1,3,1,4.9s-.3,3.5-1,4.9c-.7,1.4-1.6,2.4-2.9,3.2s-2.9,1.1-4.7,1.1h-6.5v-4.4h5.9c1.1,0,2-.2,2.7-.5s1.2-.9,1.5-1.6c.3-.7.5-1.6.5-2.6s-.2-1.9-.5-2.7-.9-1.3-1.6-1.7c-.7-.4-1.6-.6-2.7-.6h-4v24.7h-4.4,0ZM220.3,116.5l6,13.2h-4.9l-5.9-13.2h4.8Z"/>
      <path class="st6" d="M252.2,110.4h-4.4c-.1-.9-.4-1.6-.7-2.3-.3-.7-.8-1.3-1.3-1.7-.5-.5-1.1-.8-1.7-1.1s-1.3-.4-2.1-.4c-1.3,0-2.5.4-3.5,1.2s-1.8,2-2.4,3.5c-.6,1.5-.9,3.4-.9,5.6s.3,4.1.9,5.6c.6,1.5,1.4,2.7,2.4,3.4,1,.8,2.2,1.2,3.5,1.2s1.4-.1,2-.3,1.2-.6,1.7-1c.5-.5.9-1,1.3-1.7.4-.7.6-1.4.7-2.3h4.4c-.2,1.4-.5,2.7-1.1,3.9s-1.3,2.3-2.2,3.2-1.9,1.6-3.1,2.2c-1.2.5-2.5.8-3.9.8-2.1,0-4-.6-5.7-1.8-1.7-1.2-3-2.9-4-5.1s-1.4-4.9-1.4-8.1.5-5.8,1.5-8.1,2.3-3.9,4-5.1c1.7-1.2,3.6-1.8,5.7-1.8s2.6.2,3.8.7,2.2,1.1,3.1,2c.9.9,1.7,2,2.2,3.2.6,1.3,1,2.7,1.2,4.3h0Z"/>
      <path class="st6" d="M273.6,100.5h4.4v19c0,2.1-.4,3.9-1.2,5.5s-2,2.8-3.4,3.7c-1.5.9-3.2,1.3-5.2,1.3s-3.7-.4-5.2-1.3c-1.5-.9-2.6-2.1-3.4-3.7s-1.2-3.4-1.2-5.5v-19h4.4v18.6c0,1.2.2,2.3.7,3.2s1.1,1.7,1.9,2.2c.8.5,1.8.8,2.9.8s2.1-.3,2.9-.8c.8-.5,1.5-1.3,1.9-2.2.4-1,.7-2,.7-3.2v-18.6h0ZM266.5,97.6l2.7-6.5h4.2l-3.6,6.5h-3.2Z"/>
      <path class="st6" d="M284.7,129.7v-29.2h9.1c1.9,0,3.4.4,4.7,1.2s2.2,1.9,2.9,3.3,1,3,1,4.9-.3,3.5-1,4.9c-.7,1.4-1.6,2.4-2.9,3.2s-2.9,1.1-4.7,1.1h-6.5v-4.4h5.9c1.1,0,2-.2,2.7-.5s1.2-.9,1.5-1.6c.3-.7.5-1.6.5-2.6s-.2-1.9-.5-2.7-.9-1.3-1.6-1.7c-.7-.4-1.6-.6-2.7-.6h-4v24.7h-4.4,0ZM297.3,116.5l6,13.2h-4.9l-5.9-13.2h4.8Z"/>
      <path class="st6" d="M312.8,100.5v29.2h-4.4v-29.2h4.4Z"/>
      <path class="st6" d="M341.3,115.1c0,3.1-.5,5.8-1.5,8.1-1,2.2-2.3,3.9-4,5.1-1.7,1.2-3.6,1.8-5.7,1.8s-4-.6-5.7-1.8-3-2.9-4-5.1-1.5-4.9-1.5-8,.5-5.8,1.5-8.1c1-2.2,2.3-3.9,4-5.1,1.7-1.2,3.6-1.8,5.7-1.8s4,.6,5.7,1.8c1.7,1.2,3,2.9,4,5.1s1.5,4.9,1.5,8.1h0ZM336.9,115.1c0-2.2-.3-4.1-.9-5.6s-1.4-2.7-2.4-3.5-2.2-1.2-3.5-1.2-2.5.4-3.5,1.2-1.8,1.9-2.4,3.5-.9,3.4-.9,5.6.3,4.1.9,5.6,1.4,2.7,2.4,3.5,2.2,1.2,3.5,1.2,2.5-.4,3.5-1.2,1.8-1.9,2.4-3.5.9-3.4.9-5.6Z"/>
    </g>
  </g>
</svg>