<?xml version="1.0" encoding="UTF-8"?>
<svg id="Layer_1" data-name="Layer 1" xmlns="http://www.w3.org/2000/svg" xmlns:xlink="http://www.w3.org/1999/xlink" viewBox="0 0 310 262">
  <defs>
    <style>
      .cls-1 {
        fill: #333;
      }

      .cls-2 {
        fill: #ee7f26;
      }

      .cls-3, .cls-4 {
        fill: #fff;
      }

      .cls-5 {
        fill: #f15b29;
      }

      .cls-6 {
        fill: #b65c27;
      }

      .cls-6, .cls-4 {
        opacity: .99;
      }

      .cls-7 {
        fill: url(#linear-gradient);
      }
    </style>
    <linearGradient id="linear-gradient" x1="126.19" y1="134.23" x2="192.57" y2="19.26" gradientUnits="userSpaceOnUse">
      <stop offset="0" stop-color="#f04c25"/>
      <stop offset=".31" stop-color="#ef5525"/>
      <stop offset=".83" stop-color="#ef6e25"/>
      <stop offset=".99" stop-color="#ef7826"/>
    </linearGradient>
  </defs>
  <g>
    <path class="cls-7" d="M160.07,22.48c-1.89,1.71-3.49,4.01-4.96,5.8-3.5,4.27-4.55,5.4-8.05,9.67-4.26,5.2-8.52,10.4-12.77,15.59-3.89,4.75-7.79,9.51-11.68,14.26-3.53,4.31-7.34,8.43-10.83,12.75-2.31,2.86-4.02,6.2-5.21,9.67-1.21,3.54-1.86,7.25-2.06,10.98-.86,16.36,11.23,27.4,18.95,31.43,7.72,4.03,28.46,8.64,44.09-10.67,1.81-2.19,3.63-4.39,5.44-6.58,4.03-4.87,8.05-9.74,12.08-14.62,4.13-4.99,8.25-9.98,12.38-14.97,1.31-1.59,2.63-3.18,3.94-4.76,2.52-3.05,7.93-7.77,4.97-12.16-2.81-4.17-6.99-4.89-10.04-3.03-2.81,1.71-5.05,4.89-7.13,7.36-1.97,2.33-3.86,4.64-5.56,7.18-1.83,2.72-4.36,3.91-7.56,2.72-4.37-1.62-4.79-6.26-2.77-9.99,1.17-2.17,8.71-11.4,8.71-11.4l22.69-25.78s3.4-3.79.29-8.48c-3.11-4.7-8.83-4.17-11.15-2.01-2.33,2.16-13.26,14.92-13.26,14.92l-13.23,15.35s-1.84,2.2-5.86,1.93c-3.56-.24-7-4.99-5.26-8.37,1.27-2.47,3.51-4.65,5.3-6.74,1.62-1.87,3.26-3.73,4.92-5.55,2.29-2.69,2.37-2.08,4.41-4.98,1.3-1.85,2.81-4.91,1.54-7.13-1.07-1.87-2.55-3.68-4.64-4.41-3.08-1.07-5.56.11-7.68,2.02Z"/>
    <circle class="cls-3" cx="140.74" cy="101.22" r="16.89"/>
    <circle class="cls-6" cx="140.43" cy="101.33" r="23.86"/>
    <circle class="cls-2" cx="141.88" cy="97.54" r="20.08"/>
    <polygon class="cls-6" points="107.61 66.15 106.17 69.62 102.78 70.98 106.17 72.41 107.61 75.8 109.04 72.41 112.43 70.98 109.08 69.58 107.61 66.15"/>
    <polygon class="cls-6" points="114.24 119.83 112.81 123.3 109.42 124.66 112.81 126.09 114.24 129.48 115.67 126.09 119.07 124.66 115.71 123.26 114.24 119.83"/>
    <polygon class="cls-4" points="175.76 96.31 174.33 99.78 170.94 101.13 174.33 102.57 175.76 105.96 177.19 102.57 180.59 101.13 177.23 99.74 175.76 96.31"/>
    <path class="cls-4" d="M115.38,126.78l.29-.69,3.39-1.43-3.35-1.39-1.47-3.43-1.43,3.47-.49.19c.83.99,1.86,2.13,3.06,3.28Z"/>
  </g>
  <g>
    <path class="cls-1" d="M66.5,191.75v-34.2h9.63c2.23,0,4.05.45,5.48,1.36,1.43.91,2.49,2.15,3.17,3.73.69,1.58,1.03,3.38,1.03,5.39s-.34,3.8-1.03,5.36-1.74,2.78-3.16,3.67c-1.42.88-3.23,1.33-5.44,1.33h-7.79v-3.74h7.68c1.52,0,2.75-.27,3.68-.8.93-.53,1.61-1.29,2.03-2.28.42-.98.63-2.16.63-3.53s-.21-2.57-.64-3.59c-.43-1.02-1.11-1.82-2.05-2.38-.94-.56-2.17-.84-3.71-.84h-6.07v30.52h-3.45ZM79.91,176.39l7.01,15.36h-4.01l-6.9-15.36h3.9Z"/>
    <path class="cls-1" d="M117.9,174.65c0,3.61-.54,6.72-1.63,9.35s-2.57,4.65-4.47,6.08c-1.89,1.42-4.05,2.14-6.48,2.14s-4.59-.71-6.48-2.14c-1.89-1.42-3.38-3.45-4.47-6.08-1.09-2.63-1.63-5.74-1.63-9.35s.54-6.72,1.63-9.35c1.08-2.63,2.57-4.65,4.47-6.08,1.89-1.42,4.05-2.14,6.48-2.14s4.59.71,6.48,2.14c1.89,1.42,3.38,3.45,4.47,6.08s1.63,5.74,1.63,9.35ZM114.56,174.65c0-2.96-.41-5.46-1.23-7.5-.82-2.04-1.93-3.58-3.33-4.62-1.4-1.05-2.96-1.57-4.68-1.57s-3.29.52-4.68,1.57c-1.4,1.05-2.5,2.59-3.33,4.62s-1.23,4.54-1.23,7.5.41,5.46,1.23,7.5,1.93,3.58,3.33,4.62c1.4,1.05,2.96,1.57,4.68,1.57s3.29-.52,4.68-1.57c1.4-1.05,2.5-2.59,3.33-4.62.82-2.04,1.23-4.54,1.23-7.5Z"/>
    <path class="cls-1" d="M124.44,161.23v-3.67h21.37v3.67h-8.96v30.52h-3.45v-30.52h-8.96Z"/>
    <path class="cls-1" d="M154.64,191.75h-3.62l10.46-34.2h3.56l10.46,34.2h-3.62l-8.52-28.79h-.22l-8.52,28.79ZM155.97,178.39h14.58v3.67h-14.58v-3.67Z"/>
    <path class="cls-1" d="M204.4,191.75h-8.79v-34.2h9.18c2.76,0,5.13.68,7.1,2.04,1.97,1.36,3.47,3.32,4.52,5.86,1.05,2.54,1.57,5.58,1.57,9.12s-.53,6.63-1.59,9.19-2.6,4.54-4.62,5.91c-2.02,1.38-4.48,2.06-7.38,2.06ZM199.06,188.08h5.12c2.36,0,4.31-.55,5.86-1.64,1.55-1.09,2.7-2.64,3.46-4.66s1.14-4.41,1.14-7.2-.38-5.14-1.13-7.14c-.75-2-1.87-3.53-3.37-4.61-1.49-1.07-3.35-1.61-5.58-1.61h-5.51v26.85Z"/>
    <path class="cls-1" d="M226.08,191.75v-34.2h17.2v3.67h-13.75v11.55h12.86v3.67h-12.86v11.62h13.97v3.67h-17.42Z"/>
  </g>
  <g>
    <path class="cls-5" d="M33.26,203.64h6.97l9.34,27.35h.37l9.34-27.35h6.97v37.74h-5.47v-25.93h-.29l-8.69,25.82h-4.08l-8.69-25.88h-.29v25.99h-5.47v-37.74Z"/>
    <path class="cls-5" d="M75,241.38v-37.74h20.46v5.73h-14.76v10.25h13.7v5.73h-13.7v10.3h14.88v5.73h-20.58Z"/>
    <path class="cls-5" d="M103.83,241.38v-37.74h11.79c2.42,0,4.45.5,6.09,1.51,1.64,1.01,2.89,2.42,3.73,4.23.84,1.81,1.27,3.92,1.27,6.33s-.43,4.52-1.28,6.29c-.86,1.78-2.11,3.15-3.77,4.11s-3.7,1.45-6.11,1.45h-8.4v-5.68h7.63c1.41,0,2.57-.24,3.47-.71.9-.47,1.57-1.17,2-2.08.44-.92.65-2.04.65-3.38s-.22-2.49-.66-3.44-1.11-1.68-2.01-2.17c-.9-.5-2.06-.75-3.49-.75h-5.22v32.03h-5.7ZM120.08,224.28l7.79,17.1h-6.36l-7.65-17.1h6.22Z"/>
    <path class="cls-5" d="M161.44,216.37h-5.74c-.16-1.13-.47-2.13-.91-3.01-.44-.88-.99-1.62-1.64-2.24-.66-.61-1.4-1.08-2.23-1.39-.83-.31-1.73-.47-2.7-.47-1.71,0-3.23.51-4.55,1.54-1.32,1.03-2.36,2.53-3.1,4.5-.75,1.97-1.12,4.38-1.12,7.21s.38,5.32,1.13,7.29c.75,1.97,1.79,3.46,3.1,4.46,1.32,1,2.82,1.5,4.52,1.5.94,0,1.83-.15,2.65-.45s1.57-.75,2.23-1.34c.66-.59,1.22-1.32,1.67-2.17.46-.86.77-1.84.94-2.95l5.74.04c-.21,1.79-.68,3.48-1.39,5.05-.71,1.57-1.64,2.96-2.79,4.16-1.15,1.2-2.49,2.13-4.02,2.8-1.54.67-3.24,1-5.11,1-2.76,0-5.23-.77-7.4-2.3-2.17-1.54-3.88-3.75-5.13-6.65-1.25-2.9-1.87-6.38-1.87-10.43s.63-7.55,1.89-10.44c1.26-2.89,2.97-5.11,5.15-6.64,2.17-1.54,4.63-2.3,7.37-2.3,1.75,0,3.38.29,4.88.88s2.85,1.45,4.02,2.59c1.18,1.14,2.15,2.53,2.91,4.17.76,1.64,1.26,3.51,1.5,5.61Z"/>
    <path class="cls-5" d="M189.06,203.64h5.7v24.66c0,2.7-.53,5.08-1.59,7.13-1.06,2.05-2.55,3.65-4.46,4.8-1.92,1.15-4.15,1.72-6.71,1.72s-4.81-.57-6.73-1.72c-1.91-1.15-3.4-2.75-4.45-4.8-1.05-2.05-1.58-4.43-1.58-7.13v-24.66h5.7v24.09c0,1.57.29,2.97.87,4.2.58,1.23,1.39,2.19,2.45,2.88,1.05.69,2.3,1.04,3.75,1.04s2.7-.35,3.75-1.04c1.06-.69,1.88-1.66,2.45-2.88.57-1.23.86-2.63.86-4.2v-24.09ZM179.86,199.91l3.44-8.42h5.44l-4.71,8.42h-4.16Z"/>
    <path class="cls-5" d="M203.51,241.38v-37.74h11.79c2.42,0,4.45.5,6.09,1.51,1.64,1.01,2.89,2.42,3.73,4.23.84,1.81,1.27,3.92,1.27,6.33s-.43,4.52-1.28,6.29c-.86,1.78-2.11,3.15-3.77,4.11s-3.7,1.45-6.11,1.45h-8.4v-5.68h7.63c1.41,0,2.57-.24,3.47-.71.9-.47,1.57-1.17,2-2.08.44-.92.65-2.04.65-3.38s-.22-2.49-.66-3.44-1.11-1.68-2.01-2.17c-.9-.5-2.06-.75-3.49-.75h-5.22v32.03h-5.7ZM219.76,224.28l7.79,17.1h-6.36l-7.65-17.1h6.22Z"/>
    <path class="cls-5" d="M239.89,203.64v37.74h-5.7v-37.74h5.7Z"/>
    <path class="cls-5" d="M276.74,222.51c0,4.07-.63,7.55-1.9,10.44-1.26,2.89-2.99,5.11-5.16,6.64-2.18,1.54-4.64,2.3-7.4,2.3s-5.22-.77-7.39-2.31-3.9-3.76-5.16-6.65-1.9-6.37-1.9-10.42.63-7.55,1.9-10.44c1.26-2.89,2.98-5.11,5.16-6.64,2.18-1.54,4.64-2.3,7.39-2.3s5.22.77,7.4,2.3c2.17,1.54,3.9,3.75,5.16,6.64,1.26,2.89,1.9,6.37,1.9,10.44ZM271.01,222.51c0-2.86-.37-5.28-1.11-7.25-.74-1.97-1.77-3.46-3.08-4.48s-2.82-1.52-4.53-1.52-3.22.51-4.53,1.52-2.34,2.51-3.08,4.48c-.74,1.97-1.11,4.39-1.11,7.25s.37,5.28,1.11,7.25c.74,1.97,1.77,3.46,3.08,4.48s2.82,1.52,4.53,1.52,3.22-.51,4.53-1.52,2.34-2.51,3.08-4.48c.74-1.97,1.11-4.39,1.11-7.25Z"/>
  </g>
</svg>